<?xml version="1.0" standalone="no"?>
<!DOCTYPE svg PUBLIC "-//W3C//DTD SVG 20010904//EN"
 "http://www.w3.org/TR/2001/REC-SVG-20010904/DTD/svg10.dtd">
<svg version="1.0" xmlns="http://www.w3.org/2000/svg"
 width="800.000000pt" height="800.000000pt" viewBox="0 0 800.000000 800.000000"
 preserveAspectRatio="xMidYMid meet">
<metadata>
Created by potrace 1.16, written by Peter Selinger 2001-2019
</metadata>
<g transform="translate(0.000000,800.000000) scale(0.100000,-0.100000)"
fill="#000000" stroke="none">
<path d="M5182 5533 l-2 -712 -106 -3 c-164 -5 -148 65 -152 -671 -2 -417 0
-624 8 -649 18 -62 30 -68 139 -68 l98 0 6 -52 c4 -29 7 -273 7 -542 0 -269 2
-492 5 -494 3 -3 5 151 5 342 0 384 -4 356 71 468 22 31 39 62 39 67 0 6 4 11
8 11 5 0 19 19 32 43 13 23 41 68 62 100 l39 57 334 0 335 0 3 -972 2 -973 3
973 2 972 200 0 c225 0 231 2 247 77 4 21 8 306 8 633 0 575 -1 596 -20 635
l-20 40 -672 3 -673 2 -3 713 -2 712 -3 -712z m607 -899 c48 -34 49 -55 27
-366 -22 -305 -28 -328 -76 -328 -27 0 -60 34 -60 63 0 12 -9 145 -20 295 -20
294 -19 305 28 335 34 21 71 21 101 1z m19 -810 c57 -40 64 -115 15 -166 -69
-72 -183 -24 -183 77 0 41 19 74 55 93 29 16 87 14 113 -4z"/>
<path d="M3605 5713 c-230 -22 -408 -174 -460 -394 -19 -81 -19 -147 0 -227
39 -167 162 -307 314 -361 l55 -19 -60 -7 c-187 -22 -282 -76 -435 -250 l-70
-79 38 -39 c58 -59 198 -149 293 -186 365 -144 754 -69 1045 201 l69 65 -32
40 c-47 60 -152 155 -205 187 -54 31 -154 53 -292 62 l-96 7 53 19 c230 81
375 354 313 592 -48 185 -199 337 -370 374 -61 13 -120 19 -160 15z m30 -342
c8 -21 25 0 35 41 l8 33 1 -42 c1 -54 15 -55 41 -3 25 50 35 52 15 4 -18 -44
-18 -44 -1 -44 8 0 29 12 47 28 32 26 33 26 16 2 -25 -36 -22 -53 8 -48 16 3
25 1 25 -7 0 -7 6 -18 14 -24 8 -7 12 -20 9 -30 -3 -10 0 -22 6 -25 5 -4 8
-13 5 -20 -3 -8 -1 -17 5 -20 6 -4 8 -13 5 -21 -4 -9 7 -25 25 -41 26 -21 31
-33 31 -69 0 -43 -19 -73 -39 -60 -6 3 -8 0 -5 -9 3 -9 -3 -17 -16 -21 -30 -9
-34 -1 -21 36 19 56 3 44 -24 -17 -14 -33 -37 -70 -50 -84 -19 -20 -25 -38
-27 -90 -2 -36 -5 -64 -8 -63 -3 1 -25 -3 -50 -7 -60 -12 -150 -2 -150 17 0 7
8 16 18 19 54 18 120 47 139 62 22 17 21 17 -50 17 -99 0 -127 21 -178 131
-23 51 -47 88 -61 95 -22 11 -22 10 3 -17 14 -16 30 -46 36 -66 10 -35 9 -38
-8 -38 -22 0 -24 11 -7 28 9 9 9 12 0 12 -7 0 -15 -7 -19 -15 -5 -14 -8 -14
-24 1 -39 35 -28 133 17 151 7 3 14 13 14 23 0 11 4 21 9 25 6 3 10 13 10 23
1 52 30 102 59 102 10 0 12 7 7 27 -6 26 -6 27 13 10 10 -9 26 -17 35 -17 16
0 16 3 2 37 -21 50 -11 54 15 4 11 -23 25 -41 30 -41 6 0 10 24 11 53 l1 52 9
-40 c5 -22 12 -46 14 -54z"/>
<path d="M1669 4650 c-388 -4 -437 -7 -452 -22 -9 -9 -20 -18 -24 -20 -5 -1
-17 -19 -28 -38 -20 -35 -20 -54 -20 -1545 l-1 -1510 6 1425 5 1425 481 0 481
0 2 142 c0 78 -3 143 -7 145 -4 2 -203 1 -443 -2z"/>
<path d="M2588 3976 c-139 -61 -146 -262 -11 -326 165 -78 325 105 226 258
-46 71 -142 101 -215 68z"/>
<path d="M2564 3452 c-58 -37 -79 -78 -79 -158 0 -61 4 -75 27 -106 39 -51 88
-71 159 -66 170 12 224 219 86 322 -40 30 -151 34 -193 8z"/>
<path d="M2569 2937 c-105 -56 -122 -212 -31 -289 122 -103 296 -21 294 139
-1 133 -142 213 -263 150z"/>
<path d="M2513 1253 c614 -2 1620 -2 2235 0 614 1 111 2 -1118 2 -1229 0
-1732 -1 -1117 -2z"/>
</g>
</svg>
